<svg xmlns="http://www.w3.org/2000/svg" 
viewBox="0 0 400 300"
class="justify-center"
aria-hidden="true"
height="40px"
>
<path d="M120.7,10V44a42.48,42.48,0,0,0-20.5,70.59l-36,78.32H23.89v21.51H54.14L23.56,280.92,43.05,290l35-75.63H184.9L219.52,290l19.5-8.74-30.59-66.89H239V192.86H198.68l-36-78.66A42.2,42.2,0,0,0,142.21,44V10Zm10.76,53.78a21.64,21.64,0,0,1,14.79,37.31l-.34.34-10.76,4.7,39.67,86.73H87.76l39.66-86.05-10.75-5,.33-.33a21.65,21.65,0,0,1,14.46-37.65Z"/>
<path d="M314.83,18.75V10h-35v8.75h-17.5l-17.5,8.75V18.75h-35v52.5h35V62.5l17.5,8.75h17.5v36.46l-8.75,91.14V290h52.5V198.85l-8.75-91.14V71.25h17.5l7.12-10.67A35,35,0,0,1,368.57,45h16.26V18.75Z"/>
</svg>